HIERARCHY
ROOT Hips
{
	OFFSET -21.947001 39.810204 44.525997
	CHANNELS 6 Xposition Yposition Zposition Zrotation Xrotation Yrotation
	JOINT Chest
	{
		OFFSET -0.201599 0.334099 6.453201
		CHANNELS 6 Xposition Yposition Zposition Zrotation Xrotation Yrotation
		JOINT Chest2
		{
			OFFSET 0.000000 0.000000 3.568001
			CHANNELS 6 Xposition Yposition Zposition Zrotation Xrotation Yrotation
			JOINT Neck
			{
				OFFSET 0.000000 0.000000 8.296402
				CHANNELS 6 Xposition Yposition Zposition Zrotation Xrotation Yrotation
				JOINT Head
				{
					OFFSET 0.000000 0.000000 2.173901
					CHANNELS 6 Xposition Yposition Zposition Zrotation Xrotation Yrotation
					End Site
					{
						OFFSET 0.000000 0.000000 7.891998
					}
				}
			}
			JOINT LeftCollar
			{
				OFFSET 1.927601 0.221401 6.049000
				CHANNELS 6 Xposition Yposition Zposition Zrotation Xrotation Yrotation
				JOINT LeftShoulder
				{
					OFFSET 4.959700 0.000000 0.000000
					CHANNELS 6 Xposition Yposition Zposition Zrotation Xrotation Yrotation
					JOINT LeftElbow
					{
						OFFSET 0.000000 0.000000 -8.654202
						CHANNELS 6 Xposition Yposition Zposition Zrotation Xrotation Yrotation
						JOINT LeftWrist
						{
							OFFSET 0.000000 0.000000 -13.864101
							CHANNELS 6 Xposition Yposition Zposition Zrotation Xrotation Yrotation
							End Site
							{
								OFFSET 0.000000 0.000000 -2.173901
							}
						}
					}
				}
			}
			JOINT RightCollar
			{
				OFFSET -3.155701 -0.764999 6.687801
				CHANNELS 6 Xposition Yposition Zposition Zrotation Xrotation Yrotation
				JOINT RightShoulder
				{
					OFFSET -3.592899 0.000000 0.000000
					CHANNELS 6 Xposition Yposition Zposition Zrotation Xrotation Yrotation
					JOINT RightElbow
					{
						OFFSET 0.000000 0.000000 -10.352398
						CHANNELS 6 Xposition Yposition Zposition Zrotation Xrotation Yrotation
						JOINT RightWrist
						{
							OFFSET 0.000000 0.000000 -12.750301
							CHANNELS 6 Xposition Yposition Zposition Zrotation Xrotation Yrotation
							End Site
							{
								OFFSET 0.000000 0.000000 -2.173901
							}
						}
					}
				}
			}
		}
	}
	JOINT LeftHip
	{
		OFFSET 2.460600 -0.518101 -2.735500
		CHANNELS 6 Xposition Yposition Zposition Zrotation Xrotation Yrotation
		JOINT LeftKnee
		{
			OFFSET 0.000000 -0.000004 -17.005899
			CHANNELS 6 Xposition Yposition Zposition Zrotation Xrotation Yrotation
			JOINT LeftAnkle
			{
				OFFSET 0.000000 0.000000 -19.194401
				CHANNELS 6 Xposition Yposition Zposition Zrotation Xrotation Yrotation
				End Site
				{
					OFFSET 0.000000 -8.134600 0.000000
				}
			}
		}
	}
	JOINT RightHip
	{
		OFFSET -3.115499 -0.679600 -2.320301
		CHANNELS 6 Xposition Yposition Zposition Zrotation Xrotation Yrotation
		JOINT RightKnee
		{
			OFFSET 0.000000 -0.000004 -17.680401
			CHANNELS 6 Xposition Yposition Zposition Zrotation Xrotation Yrotation
			JOINT RightAnkle
			{
				OFFSET 0.000000 0.000000 -16.993797
				CHANNELS 6 Xposition Yposition Zposition Zrotation Xrotation Yrotation
				End Site
				{
					OFFSET 0.000000 -8.842300 0.000000
				}
			}
		}
	}
}
MOTION
Frames: 8
Frame Time: 0.041667
41.322701 -5.832695 42.675396 2755.083461 -0.341201 0.527626 -0.201596 0.334105 6.453192 -22.484307 10.095651 10.371966 -0.000002 0.000007 3.567991 0.807426 -9.028639 -1.022237 0.000000 0.000004 8.296396 229.938947 -168.932148 167.912305 -0.000003 0.000008 2.173898 4.156126 1.836322 6.721421 1.927603 0.221401 6.048995 -20.126361 2.174650 8.922533 4.959701 -0.000003 0.000004 176.603816 197.808753 89.443356 -0.000003 -0.000004 -8.654195 106.021202 -62.017086 70.260988 -0.000004 0.000010 -13.864091 3858.892957 -7.074852 13.584213 -3.155705 -0.765000 6.687799 14.801419 -9.319570 10.719190 -3.592898 -0.000004 0.000010 -192.407535 188.565882 327.276902 -0.000000 -0.000002 -10.352394 -370.062709 -22.850150 -346.046207 -0.000002 0.000000 -12.750300 214.413544 167.236075 -207.122618 2.460605 -0.518098 -2.735514 -1086.458630 -12.865986 -8.166182 -0.000001 -0.000006 -17.005898 858.119177 165.053229 -144.144094 -0.000009 0.000002 -19.194403 233.329972 169.321045 210.104405 -3.115491 -0.679594 -2.320308 -440.931632 -53.430295 -84.881951 -0.000004 -0.000013 -17.680391 -763.417511 187.838494 -289.548385 0.000006 0.000004 -16.993788 1430.028510 56.918490 -485.206749
41.331299 -5.836395 42.663692 2755.084335 -0.319303 0.496603 -0.201599 0.334095 6.453197 -22.411758 10.138464 10.389209 0.000005 0.000002 3.568004 0.756192 -9.041419 -1.029165 0.000004 0.000004 8.296396 229.944493 -168.913037 167.918275 0.000000 -0.000009 2.173903 4.115997 1.849365 6.759975 1.927605 0.221401 6.048999 -20.098831 2.129792 8.861476 4.959699 -0.000004 -0.000003 176.579378 197.937434 89.468778 -0.000002 0.000003 -8.654200 105.771674 -62.003467 70.004070 -0.000002 0.000000 -13.864097 3858.981694 -7.448742 13.732602 -3.155705 -0.764997 6.687799 14.553832 -9.617191 10.786710 -3.592899 0.000000 0.000006 -192.626784 188.314053 326.993230 -0.000000 -0.000007 -10.352404 -369.968234 -23.040125 -345.727319 0.000000 -0.000002 -12.750297 214.398805 167.275472 -207.148327 2.460600 -0.518106 -2.735509 -1086.397103 -12.949598 -8.198101 -0.000005 -0.000005 -17.005898 858.013992 165.055934 -143.996575 -0.000010 0.000003 -19.194403 233.320573 169.457458 210.278999 -3.115497 -0.679600 -2.320309 -441.019741 -53.481846 -84.920978 -0.000005 -0.000010 -17.680395 -763.500402 187.741396 -289.600813 -0.000001 -0.000000 -16.993792 1429.795737 56.874155 -485.149976
41.338898 -5.840191 42.650494 2755.069473 -0.306785 0.460375 -0.201602 0.334097 6.453194 -22.346784 10.173677 10.413049 -0.000003 0.000011 3.568003 0.735132 -9.103479 -1.040076 0.000004 0.000005 8.296402 229.924166 -168.955289 167.859877 0.000000 0.000002 2.173896 4.081914 1.826227 6.825347 1.927601 0.221401 6.049003 -20.149813 2.133276 9.047411 4.959700 -0.000000 0.000003 177.491099 196.928123 90.198187 -0.000003 0.000003 -8.654198 109.500206 -62.429780 73.033123 -0.000004 0.000004 -13.864094 3859.056007 -7.463854 14.202102 -3.155705 -0.764997 6.687806 14.387990 -9.772243 10.529663 -3.592903 -0.000000 0.000004 -192.848397 188.186342 327.019021 -0.000006 -0.000007 -10.352411 -369.949519 -23.146509 -345.455313 0.000002 0.000010 -12.750295 214.435018 167.311972 -207.072129 2.460599 -0.518104 -2.735507 -1086.278203 -13.037313 -8.208268 -0.000004 -0.000004 -17.005894 857.950116 164.996238 -143.851092 -0.000007 0.000004 -19.194401 233.252463 169.601302 210.361002 -3.115496 -0.679595 -2.320306 -441.102796 -53.487119 -84.965279 -0.000005 -0.000009 -17.680387 -763.548541 187.760725 -289.633024 0.000007 0.000001 -16.993786 1429.502968 56.799860 -485.203689
41.345604 -5.843292 42.637001 2755.052862 -0.309163 0.426498 -0.201601 0.334100 6.453201 -22.219147 10.228937 10.431593 0.000006 -0.000000 3.567994 0.679964 -9.117480 -1.047986 0.000001 -0.000004 8.296398 229.898567 -168.978047 167.812407 -0.000001 -0.000003 2.173896 4.028626 1.788546 6.916849 1.927606 0.221404 6.048999 -20.086181 2.101077 9.041697 4.959706 -0.000000 -0.000005 178.289507 195.871015 91.097785 0.000000 0.000001 -8.654201 113.490095 -62.802510 76.394921 -0.000003 0.000003 -13.864100 3859.081798 -7.334811 14.779821 -3.155703 -0.765003 6.687800 14.147502 -10.060821 10.548382 -3.592899 0.000004 0.000001 -192.959196 187.994755 326.908044 0.000000 -0.000001 -10.352386 -369.922144 -23.236710 -345.318191 0.000001 0.000001 -12.750300 214.407643 167.304596 -207.023935 2.460600 -0.518097 -2.735499 -1086.183564 -13.099804 -8.229126 -0.000002 -0.000006 -17.005901 857.910555 164.945394 -143.700555 0.000002 0.000002 -19.194401 233.195663 169.748615 210.396710 -3.115494 -0.679597 -2.320299 -441.162410 -53.473852 -84.975244 -0.000003 -0.000008 -17.680399 -763.585534 187.833918 -289.649225 -0.000001 -0.000001 -16.993797 1429.301232 56.653342 -485.445313
41.351799 -5.845596 42.623589 2755.052206 -0.315729 0.392761 -0.201596 0.334100 6.453196 -22.115022 10.283595 10.444825 0.000004 0.000002 3.567994 0.636546 -9.137715 -1.055751 0.000007 0.000003 8.296396 229.898102 -169.005982 167.758353 -0.000002 0.000002 2.173902 4.374396 1.691200 6.338948 1.927607 0.221405 6.049000 -19.994757 2.075518 9.044719 4.959700 0.000002 0.000002 179.009286 194.776587 91.997000 0.000005 0.000003 -8.654196 117.431306 -63.159449 79.757970 -0.000001 -0.000003 -13.864101 3859.030653 -7.175341 15.204585 -3.155701 -0.765004 6.687803 13.902216 -10.331730 10.605797 -3.592890 0.000000 0.000011 -193.020067 187.831705 326.786986 -0.000000 0.000001 -10.352398 -369.959163 -23.257339 -345.262292 0.000008 0.000008 -12.750298 214.404337 167.379154 -207.062348 2.460603 -0.518094 -2.735507 -1086.119634 -13.148655 -8.259303 -0.000001 -0.000004 -17.005894 857.874109 164.913060 -143.541521 -0.000004 -0.000003 -19.194401 233.152824 169.904931 210.442035 -3.115495 -0.679592 -2.320308 -441.210194 -53.462759 -84.953476 -0.000012 -0.000017 -17.680389 -763.616351 187.904419 -289.659799 0.000003 -0.000002 -16.993793 1428.941691 56.553259 -485.576016
41.354607 -5.846394 42.616787 2755.049583 -0.320055 0.372974 -0.201599 0.334098 6.453200 -22.079423 10.301257 10.463027 0.000005 0.000000 3.567989 0.617972 -9.137460 -1.057715 -0.000003 0.000002 8.296391 229.863460 -169.018509 167.733778 0.000001 -0.000009 2.173906 4.422201 1.667710 6.359689 1.927601 0.221405 6.048997 -19.840303 2.059835 9.417510 4.959699 -0.000002 0.000005 179.590412 193.344405 92.532739 0.000002 -0.000002 -8.654192 121.879589 -63.463065 83.295004 -0.000004 -0.000001 -13.864094 3859.068684 -6.958105 15.571021 -3.155707 -0.764993 6.687801 13.819301 -10.431727 10.625742 -3.592900 0.000004 0.000006 -193.127519 187.900225 326.683112 -0.000006 -0.000000 -10.352407 -369.980774 -23.273076 -345.286225 0.000000 -0.000001 -12.750303 214.271968 167.475760 -207.012215 2.460598 -0.518103 -2.735506 -1086.099853 -13.169316 -8.322804 -0.000005 -0.000004 -17.005898 857.772913 165.004420 -143.361163 -0.000007 0.000001 -19.194397 233.218995 170.032888 210.534939 -3.115494 -0.679599 -2.320306 -441.165853 -53.472486 -84.803704 -0.000001 -0.000015 -17.680397 -763.738420 188.081034 -289.546527 -0.000000 -0.000002 -16.993795 1428.752085 56.590515 -485.765895
41.357208 -5.846695 42.608093 2755.060511 -0.325286 0.357159 -0.201600 0.334095 6.453209 -22.113675 10.301255 10.469352 0.000010 0.000009 3.567998 0.639180 -9.126652 -1.054900 0.000001 0.000006 8.296400 229.855373 -169.032005 167.682715 -0.000004 -0.000002 2.173906 4.453890 1.658047 6.324316 1.927603 0.221408 6.049002 -19.696097 2.040865 9.758725 4.959701 0.000000 0.000000 180.212506 191.991509 93.112998 0.000005 0.000003 -8.654187 126.410819 -63.662192 87.000429 -0.000002 0.000000 -13.864096 3859.044641 -6.696887 15.863085 -3.155703 -0.764991 6.687804 13.780169 -10.476887 10.779233 -3.592895 -0.000001 0.000008 -193.226502 187.995220 326.482277 -0.000002 0.000000 -10.352394 -369.989571 -23.231394 -345.340156 0.000000 0.000008 -12.750299 214.241219 167.585440 -206.984279 2.460601 -0.518105 -2.735500 -1086.046851 -13.207875 -8.359447 -0.000002 -0.000008 -17.005898 857.741003 164.987345 -143.202265 -0.000000 0.000002 -19.194401 233.195117 170.136679 210.451679 -3.115495 -0.679596 -2.320299 -441.185851 -53.465283 -84.733790 -0.000005 -0.000012 -17.680399 -763.839890 188.261993 -289.548986 0.000003 -0.000002 -16.993788 1428.507618 56.637776 -485.914138
41.363098 -5.849098 42.588993 2755.119087 -0.331551 0.390863 -0.201599 0.334104 6.453196 -22.153884 10.323243 10.447433 0.000005 0.000004 3.568006 0.629184 -9.076649 -1.048989 0.000002 0.000002 8.296384 229.838488 -168.983702 167.672060 -0.000000 0.000001 2.173906 4.455217 1.670613 6.333010 1.927602 0.221398 6.048993 -19.540220 1.999643 9.879123 4.959702 -0.000001 -0.000001 180.064318 191.702100 92.988224 -0.000005 -0.000007 -8.654203 126.953013 -63.641763 87.461590 -0.000002 0.000005 -13.864103 3858.913939 -6.578734 15.877045 -3.155704 -0.765002 6.687789 13.596095 -10.685296 10.882226 -3.592898 -0.000004 0.000010 -193.115607 187.878355 326.425559 -0.000000 0.000004 -10.352409 -370.038394 -23.079602 -345.470039 0.000007 0.000009 -12.750297 214.254169 167.490022 -206.912248 2.460601 -0.518099 -2.735507 -1086.128376 -13.222685 -8.416618 -0.000002 0.000000 -17.005898 857.785372 164.947579 -143.124920 -0.000009 0.000003 -19.194397 233.172877 170.210800 210.410999 -3.115493 -0.679593 -2.320303 -441.464250 -53.254896 -84.831462 -0.000004 -0.000005 -17.680397 -763.794920 188.523316 -289.643024 0.000003 0.000000 -16.993788 1428.183376 56.664571 -485.888675
